<mxfile host="app.diagrams.net" agent="Mozilla/5.0 (Windows NT 10.0; Win64; x64) AppleWebKit/537.36 (KHTML, like Gecko) Chrome/134.0.0.0 Safari/537.36 Edg/134.0.0.0" version="26.1.1">
  <diagram name="Page-1" id="A866fl-0yUfah1hhZrU6">
    <mxGraphModel dx="424" dy="2115" grid="1" gridSize="10" guides="1" tooltips="1" connect="1" arrows="1" fold="1" page="1" pageScale="1" pageWidth="850" pageHeight="1100" math="0" shadow="0">
      <root>
        <mxCell id="0" />
        <mxCell id="1" parent="0" />
        <mxCell id="pD-9wlHuOyVkYz-jbomD-1" style="edgeStyle=orthogonalEdgeStyle;rounded=0;orthogonalLoop=1;jettySize=auto;html=1;exitX=0.5;exitY=1;exitDx=0;exitDy=0;entryX=0.5;entryY=0;entryDx=0;entryDy=0;" parent="1" source="pD-9wlHuOyVkYz-jbomD-2" target="pD-9wlHuOyVkYz-jbomD-5" edge="1">
          <mxGeometry relative="1" as="geometry" />
        </mxCell>
        <mxCell id="pD-9wlHuOyVkYz-jbomD-2" value="Inicio" style="rounded=1;whiteSpace=wrap;html=1;" parent="1" vertex="1">
          <mxGeometry x="270" y="-110" width="120" height="40" as="geometry" />
        </mxCell>
        <mxCell id="pD-9wlHuOyVkYz-jbomD-3" style="edgeStyle=orthogonalEdgeStyle;rounded=0;orthogonalLoop=1;jettySize=auto;html=1;exitX=1;exitY=0.5;exitDx=0;exitDy=0;entryX=0;entryY=0.5;entryDx=0;entryDy=0;" parent="1" source="pD-9wlHuOyVkYz-jbomD-5" target="pD-9wlHuOyVkYz-jbomD-6" edge="1">
          <mxGeometry relative="1" as="geometry">
            <mxPoint x="520" y="49.77777777777783" as="targetPoint" />
          </mxGeometry>
        </mxCell>
        <mxCell id="pD-9wlHuOyVkYz-jbomD-4" style="edgeStyle=orthogonalEdgeStyle;rounded=0;orthogonalLoop=1;jettySize=auto;html=1;entryX=0.5;entryY=0;entryDx=0;entryDy=0;" parent="1" source="pD-9wlHuOyVkYz-jbomD-5" target="pD-9wlHuOyVkYz-jbomD-27" edge="1">
          <mxGeometry relative="1" as="geometry">
            <mxPoint x="320" y="150" as="targetPoint" />
          </mxGeometry>
        </mxCell>
        <mxCell id="pD-9wlHuOyVkYz-jbomD-5" value="Leer archivos excel Empresas&lt;div&gt;Leer archivos excel Usuarios&lt;/div&gt;" style="whiteSpace=wrap;html=1;rounded=1;fillColor=#d5e8d4;strokeColor=#82b366;" parent="1" vertex="1">
          <mxGeometry x="240" y="-20" width="180" height="60" as="geometry" />
        </mxCell>
        <mxCell id="pD-9wlHuOyVkYz-jbomD-6" value="Nota" style="swimlane;whiteSpace=wrap;html=1;" parent="1" vertex="1">
          <mxGeometry x="500" y="-47.5" width="260" height="115" as="geometry" />
        </mxCell>
        <mxCell id="pD-9wlHuOyVkYz-jbomD-7" value="&lt;span style=&quot;text-align: center;&quot;&gt;Crear una carpeta llamada &quot;DATOS_EMPRESAS_INICIALIZAR&quot;&amp;nbsp; para agregar los archivos de excel con los datos&lt;/span&gt;" style="text;html=1;align=left;verticalAlign=middle;whiteSpace=wrap;rounded=0;" parent="pD-9wlHuOyVkYz-jbomD-6" vertex="1">
          <mxGeometry x="13.75" y="30" width="232.5" height="80" as="geometry" />
        </mxCell>
        <mxCell id="pD-9wlHuOyVkYz-jbomD-29" style="edgeStyle=orthogonalEdgeStyle;rounded=0;orthogonalLoop=1;jettySize=auto;html=1;exitX=0.5;exitY=1;exitDx=0;exitDy=0;" parent="1" source="e63QpNrha4mn6gZFvjYd-5" edge="1">
          <mxGeometry relative="1" as="geometry">
            <mxPoint x="580" y="200" as="targetPoint" />
            <mxPoint x="460" y="1080" as="sourcePoint" />
            <Array as="points">
              <mxPoint x="330" y="1200" />
              <mxPoint x="1090" y="1200" />
              <mxPoint x="1090" y="200" />
            </Array>
          </mxGeometry>
        </mxCell>
        <mxCell id="pD-9wlHuOyVkYz-jbomD-11" value="Lista de Subcarpetas" style="swimlane;fontStyle=0;childLayout=stackLayout;horizontal=1;startSize=30;horizontalStack=0;resizeParent=1;resizeParentMax=0;resizeLast=0;collapsible=1;marginBottom=0;whiteSpace=wrap;html=1;" parent="1" vertex="1">
          <mxGeometry x="870" y="550" width="140" height="120" as="geometry" />
        </mxCell>
        <mxCell id="pD-9wlHuOyVkYz-jbomD-12" value="archivos_generados" style="text;strokeColor=none;fillColor=none;align=left;verticalAlign=middle;spacingLeft=4;spacingRight=4;overflow=hidden;points=[[0,0.5],[1,0.5]];portConstraint=eastwest;rotatable=0;whiteSpace=wrap;html=1;" parent="pD-9wlHuOyVkYz-jbomD-11" vertex="1">
          <mxGeometry y="30" width="140" height="30" as="geometry" />
        </mxCell>
        <mxCell id="pD-9wlHuOyVkYz-jbomD-13" value="insumos_dgii" style="text;strokeColor=none;fillColor=none;align=left;verticalAlign=middle;spacingLeft=4;spacingRight=4;overflow=hidden;points=[[0,0.5],[1,0.5]];portConstraint=eastwest;rotatable=0;whiteSpace=wrap;html=1;" parent="pD-9wlHuOyVkYz-jbomD-11" vertex="1">
          <mxGeometry y="60" width="140" height="30" as="geometry" />
        </mxCell>
        <mxCell id="pD-9wlHuOyVkYz-jbomD-14" value="respuestas" style="text;strokeColor=none;fillColor=none;align=left;verticalAlign=middle;spacingLeft=4;spacingRight=4;overflow=hidden;points=[[0,0.5],[1,0.5]];portConstraint=eastwest;rotatable=0;whiteSpace=wrap;html=1;" parent="pD-9wlHuOyVkYz-jbomD-11" vertex="1">
          <mxGeometry y="90" width="140" height="30" as="geometry" />
        </mxCell>
        <mxCell id="pD-9wlHuOyVkYz-jbomD-15" value="Formato Carpeta Empresa" style="swimlane;whiteSpace=wrap;html=1;startSize=23;" parent="1" vertex="1">
          <mxGeometry x="540" y="540" width="200" height="180" as="geometry" />
        </mxCell>
        <mxCell id="pD-9wlHuOyVkYz-jbomD-16" value="Las capetas deben tener el siguente formato:&lt;div&gt;&lt;br&gt;&lt;/div&gt;&lt;div&gt;Si hay 2 palabras se concatenan con &quot;_&quot; to en mayuscula.&amp;nbsp;&lt;/div&gt;&lt;div&gt;&lt;br&gt;&lt;/div&gt;&lt;div&gt;Ej: La empresa Unipago SA se crearía la carpeta &quot;UNIPAGO_SA&quot;&lt;/div&gt;" style="text;html=1;align=left;verticalAlign=middle;whiteSpace=wrap;rounded=0;" parent="pD-9wlHuOyVkYz-jbomD-15" vertex="1">
          <mxGeometry x="7.5" y="50" width="185" height="100" as="geometry" />
        </mxCell>
        <mxCell id="pD-9wlHuOyVkYz-jbomD-17" style="edgeStyle=orthogonalEdgeStyle;rounded=0;orthogonalLoop=1;jettySize=auto;html=1;exitX=1;exitY=0.5;exitDx=0;exitDy=0;entryX=0.004;entryY=0.696;entryDx=0;entryDy=0;entryPerimeter=0;" parent="1" source="pD-9wlHuOyVkYz-jbomD-15" target="pD-9wlHuOyVkYz-jbomD-13" edge="1">
          <mxGeometry relative="1" as="geometry" />
        </mxCell>
        <mxCell id="pD-9wlHuOyVkYz-jbomD-18" value="Con subcarpetas" style="edgeLabel;html=1;align=center;verticalAlign=middle;resizable=0;points=[];" parent="pD-9wlHuOyVkYz-jbomD-17" vertex="1" connectable="0">
          <mxGeometry x="-0.2611" y="-1" relative="1" as="geometry">
            <mxPoint x="18" y="-1" as="offset" />
          </mxGeometry>
        </mxCell>
        <mxCell id="pD-9wlHuOyVkYz-jbomD-19" style="edgeStyle=orthogonalEdgeStyle;rounded=0;orthogonalLoop=1;jettySize=auto;html=1;entryX=0;entryY=0.5;entryDx=0;entryDy=0;" parent="1" source="pD-9wlHuOyVkYz-jbomD-21" target="pD-9wlHuOyVkYz-jbomD-25" edge="1">
          <mxGeometry relative="1" as="geometry">
            <mxPoint x="500" y="400" as="targetPoint" />
          </mxGeometry>
        </mxCell>
        <mxCell id="pD-9wlHuOyVkYz-jbomD-20" value="NO" style="edgeLabel;html=1;align=center;verticalAlign=middle;resizable=0;points=[];" parent="pD-9wlHuOyVkYz-jbomD-19" vertex="1" connectable="0">
          <mxGeometry y="2" relative="1" as="geometry">
            <mxPoint as="offset" />
          </mxGeometry>
        </mxCell>
        <mxCell id="e63QpNrha4mn6gZFvjYd-8" style="edgeStyle=orthogonalEdgeStyle;rounded=0;orthogonalLoop=1;jettySize=auto;html=1;entryX=0.5;entryY=0;entryDx=0;entryDy=0;" edge="1" parent="1" source="pD-9wlHuOyVkYz-jbomD-21" target="e63QpNrha4mn6gZFvjYd-5">
          <mxGeometry relative="1" as="geometry" />
        </mxCell>
        <mxCell id="e63QpNrha4mn6gZFvjYd-9" value="SI" style="edgeLabel;html=1;align=center;verticalAlign=middle;resizable=0;points=[];" vertex="1" connectable="0" parent="e63QpNrha4mn6gZFvjYd-8">
          <mxGeometry x="-0.1444" y="3" relative="1" as="geometry">
            <mxPoint as="offset" />
          </mxGeometry>
        </mxCell>
        <mxCell id="pD-9wlHuOyVkYz-jbomD-21" value="¿Ya existe la empresa?" style="rhombus;whiteSpace=wrap;html=1;" parent="1" vertex="1">
          <mxGeometry x="245" y="350" width="170" height="100" as="geometry" />
        </mxCell>
        <mxCell id="pD-9wlHuOyVkYz-jbomD-31" style="edgeStyle=orthogonalEdgeStyle;rounded=0;orthogonalLoop=1;jettySize=auto;html=1;entryX=1;entryY=0.5;entryDx=0;entryDy=0;" parent="1" source="pD-9wlHuOyVkYz-jbomD-25" target="pD-9wlHuOyVkYz-jbomD-27" edge="1">
          <mxGeometry relative="1" as="geometry">
            <Array as="points">
              <mxPoint x="580" y="200" />
            </Array>
          </mxGeometry>
        </mxCell>
        <mxCell id="pD-9wlHuOyVkYz-jbomD-39" style="edgeStyle=orthogonalEdgeStyle;rounded=0;orthogonalLoop=1;jettySize=auto;html=1;entryX=0;entryY=0.5;entryDx=0;entryDy=0;" parent="1" source="pD-9wlHuOyVkYz-jbomD-25" target="pD-9wlHuOyVkYz-jbomD-37" edge="1">
          <mxGeometry relative="1" as="geometry" />
        </mxCell>
        <mxCell id="pD-9wlHuOyVkYz-jbomD-25" value="La empresa {empresa} existe en la base de datos" style="shape=document;whiteSpace=wrap;html=1;boundedLbl=1;" parent="1" vertex="1">
          <mxGeometry x="500" y="355" width="150" height="90" as="geometry" />
        </mxCell>
        <mxCell id="pD-9wlHuOyVkYz-jbomD-26" style="edgeStyle=orthogonalEdgeStyle;rounded=0;orthogonalLoop=1;jettySize=auto;html=1;exitX=0.5;exitY=1;exitDx=0;exitDy=0;entryX=0.5;entryY=0;entryDx=0;entryDy=0;" parent="1" source="pD-9wlHuOyVkYz-jbomD-27" target="pD-9wlHuOyVkYz-jbomD-21" edge="1">
          <mxGeometry relative="1" as="geometry" />
        </mxCell>
        <mxCell id="pD-9wlHuOyVkYz-jbomD-27" value="Por cada empresa en el excel de empresa" style="shape=hexagon;perimeter=hexagonPerimeter2;whiteSpace=wrap;html=1;fixedSize=1;" parent="1" vertex="1">
          <mxGeometry x="195" y="160" width="270" height="80" as="geometry" />
        </mxCell>
        <mxCell id="pD-9wlHuOyVkYz-jbomD-37" value="" style="swimlane;startSize=0;" parent="1" vertex="1">
          <mxGeometry x="710" y="360" width="160" height="80" as="geometry" />
        </mxCell>
        <mxCell id="pD-9wlHuOyVkYz-jbomD-38" value="Crear archivo que guarde las respuestas de las existentes en la carpeta datos" style="text;html=1;align=center;verticalAlign=middle;whiteSpace=wrap;rounded=0;" parent="pD-9wlHuOyVkYz-jbomD-37" vertex="1">
          <mxGeometry x="17.5" y="17.5" width="125" height="45" as="geometry" />
        </mxCell>
        <mxCell id="e63QpNrha4mn6gZFvjYd-46" style="edgeStyle=orthogonalEdgeStyle;rounded=0;orthogonalLoop=1;jettySize=auto;html=1;exitX=0.5;exitY=1;exitDx=0;exitDy=0;entryX=0.5;entryY=0;entryDx=0;entryDy=0;" edge="1" parent="1" source="e63QpNrha4mn6gZFvjYd-5" target="e63QpNrha4mn6gZFvjYd-30">
          <mxGeometry relative="1" as="geometry" />
        </mxCell>
        <mxCell id="e63QpNrha4mn6gZFvjYd-47" value="SI YA NO HAY EMPRESAS" style="edgeLabel;html=1;align=center;verticalAlign=middle;resizable=0;points=[];" vertex="1" connectable="0" parent="e63QpNrha4mn6gZFvjYd-46">
          <mxGeometry x="0.3148" relative="1" as="geometry">
            <mxPoint as="offset" />
          </mxGeometry>
        </mxCell>
        <mxCell id="e63QpNrha4mn6gZFvjYd-5" value="" style="swimlane;startSize=0;fillColor=#dae8fc;strokeColor=#6c8ebf;rounded=1;" vertex="1" parent="1">
          <mxGeometry x="205" y="570" width="250" height="570" as="geometry" />
        </mxCell>
        <mxCell id="pD-9wlHuOyVkYz-jbomD-42" style="edgeStyle=orthogonalEdgeStyle;rounded=0;orthogonalLoop=1;jettySize=auto;html=1;" parent="e63QpNrha4mn6gZFvjYd-5" source="pD-9wlHuOyVkYz-jbomD-41" target="pD-9wlHuOyVkYz-jbomD-43" edge="1">
          <mxGeometry relative="1" as="geometry">
            <mxPoint x="125" y="220" as="targetPoint" />
          </mxGeometry>
        </mxCell>
        <mxCell id="pD-9wlHuOyVkYz-jbomD-47" style="edgeStyle=orthogonalEdgeStyle;rounded=0;orthogonalLoop=1;jettySize=auto;html=1;exitX=0.5;exitY=1;exitDx=0;exitDy=0;entryX=0.5;entryY=0;entryDx=0;entryDy=0;" parent="e63QpNrha4mn6gZFvjYd-5" source="pD-9wlHuOyVkYz-jbomD-43" target="pD-9wlHuOyVkYz-jbomD-46" edge="1">
          <mxGeometry relative="1" as="geometry" />
        </mxCell>
        <mxCell id="e63QpNrha4mn6gZFvjYd-1" style="edgeStyle=orthogonalEdgeStyle;rounded=0;orthogonalLoop=1;jettySize=auto;html=1;exitX=0.5;exitY=1;exitDx=0;exitDy=0;entryX=0.5;entryY=0;entryDx=0;entryDy=0;" edge="1" parent="e63QpNrha4mn6gZFvjYd-5" source="pD-9wlHuOyVkYz-jbomD-46" target="pD-9wlHuOyVkYz-jbomD-49">
          <mxGeometry relative="1" as="geometry" />
        </mxCell>
        <mxCell id="e63QpNrha4mn6gZFvjYd-2" style="edgeStyle=orthogonalEdgeStyle;rounded=0;orthogonalLoop=1;jettySize=auto;html=1;exitX=0.5;exitY=1;exitDx=0;exitDy=0;entryX=0.5;entryY=0;entryDx=0;entryDy=0;" edge="1" parent="e63QpNrha4mn6gZFvjYd-5" source="pD-9wlHuOyVkYz-jbomD-49" target="pD-9wlHuOyVkYz-jbomD-48">
          <mxGeometry relative="1" as="geometry" />
        </mxCell>
        <mxCell id="e63QpNrha4mn6gZFvjYd-7" style="edgeStyle=orthogonalEdgeStyle;rounded=0;orthogonalLoop=1;jettySize=auto;html=1;exitX=0.5;exitY=1;exitDx=0;exitDy=0;entryX=0.5;entryY=0;entryDx=0;entryDy=0;" edge="1" parent="e63QpNrha4mn6gZFvjYd-5" source="pD-9wlHuOyVkYz-jbomD-10" target="pD-9wlHuOyVkYz-jbomD-41">
          <mxGeometry relative="1" as="geometry" />
        </mxCell>
        <mxCell id="pD-9wlHuOyVkYz-jbomD-48" value="Insertar contribuyente" style="rounded=1;whiteSpace=wrap;html=1;" parent="e63QpNrha4mn6gZFvjYd-5" vertex="1">
          <mxGeometry x="30" y="480" width="190" height="60" as="geometry" />
        </mxCell>
        <mxCell id="pD-9wlHuOyVkYz-jbomD-49" value="Insertar dirección" style="rounded=1;whiteSpace=wrap;html=1;" parent="e63QpNrha4mn6gZFvjYd-5" vertex="1">
          <mxGeometry x="30" y="390" width="190" height="60" as="geometry" />
        </mxCell>
        <mxCell id="pD-9wlHuOyVkYz-jbomD-46" value="Insertar cliente" style="rounded=1;whiteSpace=wrap;html=1;" parent="e63QpNrha4mn6gZFvjYd-5" vertex="1">
          <mxGeometry x="30" y="300" width="190" height="60" as="geometry" />
        </mxCell>
        <mxCell id="pD-9wlHuOyVkYz-jbomD-43" value="Trae app cliente para guardar&amp;nbsp;&lt;div&gt;en la db&lt;/div&gt;" style="rounded=1;whiteSpace=wrap;html=1;" parent="e63QpNrha4mn6gZFvjYd-5" vertex="1">
          <mxGeometry x="30" y="210" width="190" height="60" as="geometry" />
        </mxCell>
        <mxCell id="pD-9wlHuOyVkYz-jbomD-41" value="Conectarse a cognito y crear app clients" style="rounded=1;whiteSpace=wrap;html=1;" parent="e63QpNrha4mn6gZFvjYd-5" vertex="1">
          <mxGeometry x="30" y="120" width="190" height="60" as="geometry" />
        </mxCell>
        <mxCell id="pD-9wlHuOyVkYz-jbomD-10" value="Crear las carpetas basado en los nombres de la empresa." style="whiteSpace=wrap;html=1;rounded=1;" parent="e63QpNrha4mn6gZFvjYd-5" vertex="1">
          <mxGeometry x="26.25" y="30" width="197.5" height="60" as="geometry" />
        </mxCell>
        <mxCell id="e63QpNrha4mn6gZFvjYd-10" value="Insertar usuarios" style="rounded=1;whiteSpace=wrap;html=1;" vertex="1" parent="1">
          <mxGeometry x="1360" y="1510" width="190" height="60" as="geometry" />
        </mxCell>
        <mxCell id="e63QpNrha4mn6gZFvjYd-11" style="edgeStyle=orthogonalEdgeStyle;rounded=0;orthogonalLoop=1;jettySize=auto;html=1;exitX=1;exitY=0.5;exitDx=0;exitDy=0;entryX=0;entryY=0.5;entryDx=0;entryDy=0;" edge="1" parent="1" source="pD-9wlHuOyVkYz-jbomD-10" target="pD-9wlHuOyVkYz-jbomD-15">
          <mxGeometry relative="1" as="geometry">
            <mxPoint x="490" y="629.6666666666665" as="targetPoint" />
          </mxGeometry>
        </mxCell>
        <mxCell id="e63QpNrha4mn6gZFvjYd-12" style="edgeStyle=orthogonalEdgeStyle;rounded=0;orthogonalLoop=1;jettySize=auto;html=1;exitX=0.5;exitY=1;exitDx=0;exitDy=0;" edge="1" parent="1" source="e63QpNrha4mn6gZFvjYd-33">
          <mxGeometry relative="1" as="geometry">
            <mxPoint x="580" y="1350" as="targetPoint" />
            <mxPoint x="460" y="2230" as="sourcePoint" />
            <Array as="points">
              <mxPoint x="330" y="2350" />
              <mxPoint x="1090" y="2350" />
              <mxPoint x="1090" y="1350" />
            </Array>
          </mxGeometry>
        </mxCell>
        <mxCell id="e63QpNrha4mn6gZFvjYd-13" value="Lista de Subcarpetas" style="swimlane;fontStyle=0;childLayout=stackLayout;horizontal=1;startSize=30;horizontalStack=0;resizeParent=1;resizeParentMax=0;resizeLast=0;collapsible=1;marginBottom=0;whiteSpace=wrap;html=1;" vertex="1" parent="1">
          <mxGeometry x="870" y="1700" width="140" height="120" as="geometry" />
        </mxCell>
        <mxCell id="e63QpNrha4mn6gZFvjYd-14" value="archivos_generados" style="text;strokeColor=none;fillColor=none;align=left;verticalAlign=middle;spacingLeft=4;spacingRight=4;overflow=hidden;points=[[0,0.5],[1,0.5]];portConstraint=eastwest;rotatable=0;whiteSpace=wrap;html=1;" vertex="1" parent="e63QpNrha4mn6gZFvjYd-13">
          <mxGeometry y="30" width="140" height="30" as="geometry" />
        </mxCell>
        <mxCell id="e63QpNrha4mn6gZFvjYd-15" value="insumos_dgii" style="text;strokeColor=none;fillColor=none;align=left;verticalAlign=middle;spacingLeft=4;spacingRight=4;overflow=hidden;points=[[0,0.5],[1,0.5]];portConstraint=eastwest;rotatable=0;whiteSpace=wrap;html=1;" vertex="1" parent="e63QpNrha4mn6gZFvjYd-13">
          <mxGeometry y="60" width="140" height="30" as="geometry" />
        </mxCell>
        <mxCell id="e63QpNrha4mn6gZFvjYd-16" value="respuestas" style="text;strokeColor=none;fillColor=none;align=left;verticalAlign=middle;spacingLeft=4;spacingRight=4;overflow=hidden;points=[[0,0.5],[1,0.5]];portConstraint=eastwest;rotatable=0;whiteSpace=wrap;html=1;" vertex="1" parent="e63QpNrha4mn6gZFvjYd-13">
          <mxGeometry y="90" width="140" height="30" as="geometry" />
        </mxCell>
        <mxCell id="e63QpNrha4mn6gZFvjYd-17" value="Formato Carpeta Empresa" style="swimlane;whiteSpace=wrap;html=1;startSize=23;" vertex="1" parent="1">
          <mxGeometry x="540" y="1690" width="200" height="180" as="geometry" />
        </mxCell>
        <mxCell id="e63QpNrha4mn6gZFvjYd-18" value="Las capetas deben tener el siguente formato:&lt;div&gt;&lt;br&gt;&lt;/div&gt;&lt;div&gt;Si hay 2 palabras se concatenan con &quot;_&quot; to en mayuscula.&amp;nbsp;&lt;/div&gt;&lt;div&gt;&lt;br&gt;&lt;/div&gt;&lt;div&gt;Ej: La empresa Unipago SA se crearía la carpeta &quot;UNIPAGO_SA&quot;&lt;/div&gt;" style="text;html=1;align=left;verticalAlign=middle;whiteSpace=wrap;rounded=0;" vertex="1" parent="e63QpNrha4mn6gZFvjYd-17">
          <mxGeometry x="7.5" y="50" width="185" height="100" as="geometry" />
        </mxCell>
        <mxCell id="e63QpNrha4mn6gZFvjYd-19" style="edgeStyle=orthogonalEdgeStyle;rounded=0;orthogonalLoop=1;jettySize=auto;html=1;exitX=1;exitY=0.5;exitDx=0;exitDy=0;entryX=0.004;entryY=0.696;entryDx=0;entryDy=0;entryPerimeter=0;" edge="1" parent="1" source="e63QpNrha4mn6gZFvjYd-17" target="e63QpNrha4mn6gZFvjYd-15">
          <mxGeometry relative="1" as="geometry" />
        </mxCell>
        <mxCell id="e63QpNrha4mn6gZFvjYd-20" value="Con subcarpetas" style="edgeLabel;html=1;align=center;verticalAlign=middle;resizable=0;points=[];" vertex="1" connectable="0" parent="e63QpNrha4mn6gZFvjYd-19">
          <mxGeometry x="-0.2611" y="-1" relative="1" as="geometry">
            <mxPoint x="18" y="-1" as="offset" />
          </mxGeometry>
        </mxCell>
        <mxCell id="e63QpNrha4mn6gZFvjYd-21" style="edgeStyle=orthogonalEdgeStyle;rounded=0;orthogonalLoop=1;jettySize=auto;html=1;entryX=0;entryY=0.5;entryDx=0;entryDy=0;" edge="1" parent="1" source="e63QpNrha4mn6gZFvjYd-25" target="e63QpNrha4mn6gZFvjYd-28">
          <mxGeometry relative="1" as="geometry">
            <mxPoint x="500" y="1550" as="targetPoint" />
          </mxGeometry>
        </mxCell>
        <mxCell id="e63QpNrha4mn6gZFvjYd-22" value="NO" style="edgeLabel;html=1;align=center;verticalAlign=middle;resizable=0;points=[];" vertex="1" connectable="0" parent="e63QpNrha4mn6gZFvjYd-21">
          <mxGeometry y="2" relative="1" as="geometry">
            <mxPoint as="offset" />
          </mxGeometry>
        </mxCell>
        <mxCell id="e63QpNrha4mn6gZFvjYd-23" style="edgeStyle=orthogonalEdgeStyle;rounded=0;orthogonalLoop=1;jettySize=auto;html=1;entryX=0.5;entryY=0;entryDx=0;entryDy=0;" edge="1" parent="1" source="e63QpNrha4mn6gZFvjYd-25" target="e63QpNrha4mn6gZFvjYd-33">
          <mxGeometry relative="1" as="geometry" />
        </mxCell>
        <mxCell id="e63QpNrha4mn6gZFvjYd-24" value="SI" style="edgeLabel;html=1;align=center;verticalAlign=middle;resizable=0;points=[];" vertex="1" connectable="0" parent="e63QpNrha4mn6gZFvjYd-23">
          <mxGeometry x="-0.1444" y="3" relative="1" as="geometry">
            <mxPoint as="offset" />
          </mxGeometry>
        </mxCell>
        <mxCell id="e63QpNrha4mn6gZFvjYd-25" value="¿Ya existe e?" style="rhombus;whiteSpace=wrap;html=1;" vertex="1" parent="1">
          <mxGeometry x="245" y="1500" width="170" height="100" as="geometry" />
        </mxCell>
        <mxCell id="e63QpNrha4mn6gZFvjYd-26" style="edgeStyle=orthogonalEdgeStyle;rounded=0;orthogonalLoop=1;jettySize=auto;html=1;entryX=1;entryY=0.5;entryDx=0;entryDy=0;" edge="1" parent="1" source="e63QpNrha4mn6gZFvjYd-28" target="e63QpNrha4mn6gZFvjYd-30">
          <mxGeometry relative="1" as="geometry">
            <Array as="points">
              <mxPoint x="580" y="1350" />
            </Array>
          </mxGeometry>
        </mxCell>
        <mxCell id="e63QpNrha4mn6gZFvjYd-27" style="edgeStyle=orthogonalEdgeStyle;rounded=0;orthogonalLoop=1;jettySize=auto;html=1;entryX=0;entryY=0.5;entryDx=0;entryDy=0;" edge="1" parent="1" source="e63QpNrha4mn6gZFvjYd-28" target="e63QpNrha4mn6gZFvjYd-31">
          <mxGeometry relative="1" as="geometry" />
        </mxCell>
        <mxCell id="e63QpNrha4mn6gZFvjYd-28" value="La empresa {empresa} existe en la base de datos" style="shape=document;whiteSpace=wrap;html=1;boundedLbl=1;" vertex="1" parent="1">
          <mxGeometry x="500" y="1505" width="150" height="90" as="geometry" />
        </mxCell>
        <mxCell id="e63QpNrha4mn6gZFvjYd-29" style="edgeStyle=orthogonalEdgeStyle;rounded=0;orthogonalLoop=1;jettySize=auto;html=1;exitX=0.5;exitY=1;exitDx=0;exitDy=0;entryX=0.5;entryY=0;entryDx=0;entryDy=0;" edge="1" parent="1" source="e63QpNrha4mn6gZFvjYd-30" target="e63QpNrha4mn6gZFvjYd-25">
          <mxGeometry relative="1" as="geometry" />
        </mxCell>
        <mxCell id="e63QpNrha4mn6gZFvjYd-30" value="Por cada usuario en el excel de empresa" style="shape=hexagon;perimeter=hexagonPerimeter2;whiteSpace=wrap;html=1;fixedSize=1;" vertex="1" parent="1">
          <mxGeometry x="195" y="1310" width="270" height="80" as="geometry" />
        </mxCell>
        <mxCell id="e63QpNrha4mn6gZFvjYd-31" value="" style="swimlane;startSize=0;" vertex="1" parent="1">
          <mxGeometry x="710" y="1510" width="160" height="80" as="geometry" />
        </mxCell>
        <mxCell id="e63QpNrha4mn6gZFvjYd-32" value="Crear archivo que guarde las respuestas de las existentes en la carpeta datos" style="text;html=1;align=center;verticalAlign=middle;whiteSpace=wrap;rounded=0;" vertex="1" parent="e63QpNrha4mn6gZFvjYd-31">
          <mxGeometry x="17.5" y="17.5" width="125" height="45" as="geometry" />
        </mxCell>
        <mxCell id="e63QpNrha4mn6gZFvjYd-33" value="" style="swimlane;startSize=0;fillColor=#dae8fc;strokeColor=#6c8ebf;rounded=1;" vertex="1" parent="1">
          <mxGeometry x="205" y="1720" width="250" height="570" as="geometry" />
        </mxCell>
        <mxCell id="e63QpNrha4mn6gZFvjYd-34" style="edgeStyle=orthogonalEdgeStyle;rounded=0;orthogonalLoop=1;jettySize=auto;html=1;" edge="1" parent="e63QpNrha4mn6gZFvjYd-33" source="e63QpNrha4mn6gZFvjYd-43" target="e63QpNrha4mn6gZFvjYd-42">
          <mxGeometry relative="1" as="geometry">
            <mxPoint x="125" y="220" as="targetPoint" />
          </mxGeometry>
        </mxCell>
        <mxCell id="e63QpNrha4mn6gZFvjYd-35" style="edgeStyle=orthogonalEdgeStyle;rounded=0;orthogonalLoop=1;jettySize=auto;html=1;exitX=0.5;exitY=1;exitDx=0;exitDy=0;entryX=0.5;entryY=0;entryDx=0;entryDy=0;" edge="1" parent="e63QpNrha4mn6gZFvjYd-33" source="e63QpNrha4mn6gZFvjYd-42" target="e63QpNrha4mn6gZFvjYd-41">
          <mxGeometry relative="1" as="geometry" />
        </mxCell>
        <mxCell id="e63QpNrha4mn6gZFvjYd-36" style="edgeStyle=orthogonalEdgeStyle;rounded=0;orthogonalLoop=1;jettySize=auto;html=1;exitX=0.5;exitY=1;exitDx=0;exitDy=0;entryX=0.5;entryY=0;entryDx=0;entryDy=0;" edge="1" parent="e63QpNrha4mn6gZFvjYd-33" source="e63QpNrha4mn6gZFvjYd-41" target="e63QpNrha4mn6gZFvjYd-40">
          <mxGeometry relative="1" as="geometry" />
        </mxCell>
        <mxCell id="e63QpNrha4mn6gZFvjYd-37" style="edgeStyle=orthogonalEdgeStyle;rounded=0;orthogonalLoop=1;jettySize=auto;html=1;exitX=0.5;exitY=1;exitDx=0;exitDy=0;entryX=0.5;entryY=0;entryDx=0;entryDy=0;" edge="1" parent="e63QpNrha4mn6gZFvjYd-33" source="e63QpNrha4mn6gZFvjYd-40" target="e63QpNrha4mn6gZFvjYd-39">
          <mxGeometry relative="1" as="geometry" />
        </mxCell>
        <mxCell id="e63QpNrha4mn6gZFvjYd-38" style="edgeStyle=orthogonalEdgeStyle;rounded=0;orthogonalLoop=1;jettySize=auto;html=1;exitX=0.5;exitY=1;exitDx=0;exitDy=0;entryX=0.5;entryY=0;entryDx=0;entryDy=0;" edge="1" parent="e63QpNrha4mn6gZFvjYd-33" source="e63QpNrha4mn6gZFvjYd-44" target="e63QpNrha4mn6gZFvjYd-43">
          <mxGeometry relative="1" as="geometry" />
        </mxCell>
        <mxCell id="e63QpNrha4mn6gZFvjYd-39" value="Insertar contribuyente" style="rounded=1;whiteSpace=wrap;html=1;" vertex="1" parent="e63QpNrha4mn6gZFvjYd-33">
          <mxGeometry x="30" y="480" width="190" height="60" as="geometry" />
        </mxCell>
        <mxCell id="e63QpNrha4mn6gZFvjYd-40" value="Insertar dirección" style="rounded=1;whiteSpace=wrap;html=1;" vertex="1" parent="e63QpNrha4mn6gZFvjYd-33">
          <mxGeometry x="30" y="390" width="190" height="60" as="geometry" />
        </mxCell>
        <mxCell id="e63QpNrha4mn6gZFvjYd-41" value="Insertar cliente" style="rounded=1;whiteSpace=wrap;html=1;" vertex="1" parent="e63QpNrha4mn6gZFvjYd-33">
          <mxGeometry x="30" y="300" width="190" height="60" as="geometry" />
        </mxCell>
        <mxCell id="e63QpNrha4mn6gZFvjYd-42" value="Trae app cliente para guardar&amp;nbsp;&lt;div&gt;en la db&lt;/div&gt;" style="rounded=1;whiteSpace=wrap;html=1;" vertex="1" parent="e63QpNrha4mn6gZFvjYd-33">
          <mxGeometry x="30" y="210" width="190" height="60" as="geometry" />
        </mxCell>
        <mxCell id="e63QpNrha4mn6gZFvjYd-43" value="Conectarse a cognito y crear app clients" style="rounded=1;whiteSpace=wrap;html=1;" vertex="1" parent="e63QpNrha4mn6gZFvjYd-33">
          <mxGeometry x="30" y="120" width="190" height="60" as="geometry" />
        </mxCell>
        <mxCell id="e63QpNrha4mn6gZFvjYd-44" value="Crear las carpetas basado en los nombres de la empresa." style="whiteSpace=wrap;html=1;rounded=1;" vertex="1" parent="e63QpNrha4mn6gZFvjYd-33">
          <mxGeometry x="26.25" y="30" width="197.5" height="60" as="geometry" />
        </mxCell>
        <mxCell id="e63QpNrha4mn6gZFvjYd-45" style="edgeStyle=orthogonalEdgeStyle;rounded=0;orthogonalLoop=1;jettySize=auto;html=1;exitX=1;exitY=0.5;exitDx=0;exitDy=0;entryX=0;entryY=0.5;entryDx=0;entryDy=0;" edge="1" parent="1" source="e63QpNrha4mn6gZFvjYd-44" target="e63QpNrha4mn6gZFvjYd-17">
          <mxGeometry relative="1" as="geometry">
            <mxPoint x="490" y="1779.6666666666665" as="targetPoint" />
          </mxGeometry>
        </mxCell>
      </root>
    </mxGraphModel>
  </diagram>
</mxfile>
